<svg width="96" height="96" viewBox="0 0 428 436" fill="none" xmlns="http://www.w3.org/2000/svg">
<path d="M59.2 382.8C40.2667 382.8 25.6 377.6 15.2 367.2C5.06667 357.067 0 343.467 0 326.4C0 312 4.4 299.467 13.2 288.8C22 278.133 33.8667 272.8 48.8 272.8C60.2667 272.8 69.6 274.533 76.8 278C84.2667 281.2 88 288.4 88 299.6C88 304.4 87.2 309.733 85.6 315.6C80.8 311.6 76.6667 308.8 73.2 307.2C69.7333 305.867 65.8667 305.2 61.6 305.2C52.8 305.2 45.8667 308.133 40.8 314C36 319.867 33.6 326.8 33.6 334.8C33.6 344.133 36.4 351.067 42 355.6C47.6 360.4 53.8667 362.8 60.8 362.8C67.2 362.8 72.5333 361.467 76.8 358.8C81.3333 356.4 85.3333 351.6 88.8 344.4C92.2667 337.467 95.6 327.2 98.8 313.6L161.6 28C143.733 35.2 129.867 46.2667 120 61.2C110.133 76.1334 105.2 94.2667 105.2 115.6C105.2 125.467 106.133 132.4 108 136.4C109.867 140.133 110.8 142.267 110.8 142.8C96.4 142.8 85.6 139.867 78.4 134C71.4667 127.867 68 117.867 68 104C68 86.9334 74.9333 70.4 88.8 54.4C102.933 38.1334 120.933 25.0667 142.8 15.2C164.667 5.06667 186.533 0 208.4 0H224.4L164.4 284C157.467 316.8 146 341.467 130 358C114 374.533 90.4 382.8 59.2 382.8Z" fill="#235ED1"/>
<path d="M351 157.6C345.4 157.6 340.867 157.467 337.4 157.2L315 156.8C290.467 156.8 278.2 159.733 278.2 165.6C279.8 165.6 281.267 166.667 282.6 168.8C284.2 170.933 285 174.133 285 178.4C285 186.4 282.467 192.267 277.4 196C272.6 199.467 267.267 201.2 261.4 201.2C254.2 201.2 249 198.933 245.8 194.4C242.6 189.6 241 184 241 177.6C241 166.667 245.4 157.067 254.2 148.8C263 140.267 275 136 290.2 136H427.4L289.4 410C296.867 410 302.6 410.133 306.6 410.4L327.8 410.8C339 410.8 348.067 410.267 355 409.2C362.2 407.867 367 405.467 369.4 402C367.533 402 365.8 401.067 364.2 399.2C362.867 397.067 362.2 393.867 362.2 389.6C362.2 381.6 364.6 375.733 369.4 372C374.2 368.267 379.8 366.4 386.2 366.4C393.133 366.4 398.2 368.667 401.4 373.2C404.867 377.733 406.6 383.2 406.6 389.6C406.6 396.533 404.467 403.6 400.2 410.8C395.933 418 389.8 424 381.8 428.8C374.067 433.6 365.267 436 355.4 436H211L351 157.6Z" fill="#29CE44"/>
</svg>
